Coordinates
version=1
nRows=19
nColumns=24
inDegrees=yes

Units are S.I. units (second, meters, Newtons, ...)
Angles are in degrees.

endheader
time	pelvis_tilt	pelvis_list	pelvis_rotation	pelvis_tx	pelvis_ty	pelvis_tz	hip_flexion_r	hip_adduction_r	hip_rotation_r	knee_angle_r	ankle_angle_r	subtalar_angle_r	mtp_angle_r	hip_flexion_l	hip_adduction_l	hip_rotation_l	knee_angle_l	ankle_angle_l	subtalar_angle_l	mtp_angle_l	lumbar_extension	lumbar_bending	lumbar_rotation
      3.17000000	     53.96913500	    -15.32580016	      0.37253723	      0.43178537	      1.02604142	     -0.35854884	     21.37124043	      0.06527942	      6.50722126	    -36.59306417	      2.76745693	     49.77992968	      0.00000000	     19.40256243	    -24.77005854	     11.37381358	    -68.61199774	     26.03759033	     29.68250738	      0.00000000	      0.00000000	      0.00000000	      0.00000000
      3.18000000	     53.98434466	    -15.33788194	      0.39148921	      0.43176931	      1.02618681	     -0.35860232	     21.28474254	      0.07480705	      6.56250007	    -36.47791185	      2.80642123	     49.89802730	      0.00000000	     19.38445996	    -24.78434004	     11.37863438	    -68.61274381	     26.03247844	     29.69235558	      0.00000000	      0.00000000	      0.00000000	      0.00000000
      3.19000000	     54.00596874	    -15.34291039	      0.40943712	      0.43175655	      1.02628185	     -0.35862654	     21.22845868	      0.08826971	      6.58511363	    -36.43559273	      2.83931710	     49.99120104	      0.00000000	     19.35631772	    -24.79225565	     11.37973682	    -68.61888750	     26.02572459	     29.70040025	      0.00000000	      0.00000000	      0.00000000	      0.00000000
      3.20000000	     54.03047772	    -15.34060054	      0.42272314	      0.43174950	      1.02631737	     -0.35863074	     21.20390654	      0.10196005	      6.57657224	    -36.45705449	      2.86572100	     50.04691842	      0.00000000	     19.32648014	    -24.79539411	     11.37720571	    -68.63165470	     26.01864371	     29.70561549	      0.00000000	      0.00000000	      0.00000000	      0.00000000
      3.21000000	     54.05256567	    -15.33232351	      0.43083881	      0.43174934	      1.02631681	     -0.35864108	     21.20402768	      0.11514667	      6.54654266	    -36.51271811	      2.88776737	     50.06400931	      0.00000000	     19.30229343	    -24.79553914	     11.37254496	    -68.64999421	     26.01219902	     29.70735543	      0.00000000	      0.00000000	      0.00000000	      0.00000000
      3.22000000	     54.06712725	    -15.32086214	      0.43531878	      0.43175387	      1.02630300	     -0.35866383	     21.21671304	      0.12963679	      6.50764981	    -36.56772483	      2.90852275	     50.05057245	      0.00000000	     19.28772243	    -24.79402798	     11.36790691	    -68.67116251	     26.00701325	     29.70547433	      0.00000000	      0.00000000	      0.00000000	      0.00000000
      3.23000000	     54.07161245	    -15.30919831	      0.43804010	      0.43175878	      1.02629045	     -0.35869327	     21.22990103	      0.14814032	      6.47063597	    -36.59533611	      2.93039557	     50.01896412	      0.00000000	     19.28310518	    -24.79188148	     11.36527964	    -68.69197074	     26.00360640	     29.70028509	      0.00000000	      0.00000000	      0.00000000	      0.00000000
      3.24000000	     54.06687882	    -15.29908760	      0.44011977	      0.43175971	      1.02628943	     -0.35872848	     21.23613094	      0.17256525	      6.44114209	    -36.58497876	      2.95406279	     49.98005381	      0.00000000	     19.28618055	    -24.78993176	     11.36560280	    -68.71018355	     26.00264547	     29.69241148	      0.00000000	      0.00000000	      0.00000000	      0.00000000
      3.25000000	     54.05631769	    -15.29015380	      0.44158044	      0.43175486	      1.02630520	     -0.35876913	     21.23494891	      0.20292663	      6.41842924	    -36.54438728	      2.97816365	     49.93897920	      0.00000000	     19.29348177	    -24.78874552	     11.36817149	    -68.72526458	     26.00502106	     29.68258982	      0.00000000	      0.00000000	      0.00000000	      0.00000000
      3.26000000	     54.04431139	    -15.27992139	      0.44144579	      0.43174777	      1.02633206	     -0.35880858	     21.23274834	      0.23719966	      6.39583987	    -36.49674500	      2.99981144	     49.89390459	      0.00000000	     19.30148442	    -24.78854595	     11.37078253	    -68.73807414	     26.01166884	     29.67147453	      0.00000000	      0.00000000	      0.00000000	      0.00000000
      3.27000000	     54.03482337	    -15.26519120	      0.43831261	      0.43174462	      1.02634847	     -0.35883621	     21.24053534	      0.27201677	      6.36281420	    -36.47379783	      3.01577284	     49.83808454	      0.00000000	     19.30703103	    -24.78912215	     11.37059078	    -68.74997754	     26.02314769	     29.65953471	      0.00000000	      0.00000000	      0.00000000	      0.00000000
      3.28000000	     54.03025155	    -15.24420295	      0.43154382	      0.43174761	      1.02632242	     -0.35883666	     21.27031597	      0.30421522	      6.30823230	    -36.50569706	      3.02397363	     49.76428546	      0.00000000	     19.30707703	    -24.78953484	     11.36521201	    -68.76218693	     26.03911395	     29.64711388	      0.00000000	      0.00000000	      0.00000000	      0.00000000
      3.29000000	     54.03093405	    -15.21776358	      0.42240791	      0.43175760	      1.02624105	     -0.35879874	     21.33067333	      0.33314447	      6.22457996	    -36.60898565	      3.02486669	     49.66978485	      0.00000000	     19.29888955	    -24.78789885	     11.35374564	    -68.77561819	     26.05796518	     29.63461191	      0.00000000	      0.00000000	      0.00000000	      0.00000000
      3.30000000	     54.03576852	    -15.18824794	      0.41377815	      0.43178569	      1.02615812	     -0.35874746	     21.42190566	      0.36219385	      6.11212512	    -36.77608296	      3.02215249	     49.55999626	      0.00000000	     19.28201300	    -24.78213830	     11.33770530	    -68.79074840	     26.07692347	     29.62263858	      0.00000000	      0.00000000	      0.00000000	      0.00000000
      3.31000000	     54.04272853	    -15.15791592	      0.40806593	      0.43184599	      1.02618040	     -0.35875036	     21.53138118	      0.39709225	      5.98172646	    -36.97161217	      3.02237530	     49.44921446	      0.00000000	     19.26104265	    -24.77206239	     11.32165620	    -68.80697733	     26.09263574	     29.61199798	      0.00000000	      0.00000000	      0.00000000	      0.00000000
      3.32000000	     54.04764327	    -15.12921962	      0.40538446	      0.43191767	      1.02632102	     -0.35883850	     21.63196250	      0.44086896	      5.85413150	    -37.14042288	      3.03317632	     49.35789741	      0.00000000	     19.24549570	    -24.76128404	     11.31271646	    -68.82192482	     26.10208412	     29.60350635	      0.00000000	      0.00000000	      0.00000000	      0.00000000
      3.33000000	     54.04452089	    -15.10672164	      0.40451468	      0.43193673	      1.02639808	     -0.35892590	     21.68979615	      0.49013062	      5.75387667	    -37.22738437	      3.06059135	     49.30710016	      0.00000000	     19.24437775	    -24.75658526	     11.31811280	    -68.83168885	     26.10341628	     29.59778345	      0.00000000	      0.00000000	      0.00000000	      0.00000000
      3.34000000	     54.03266053	    -15.09605159	      0.40629925	      0.43187888	      1.02627673	     -0.35890955	     21.68368963	      0.53865634	      5.69861753	    -37.20156798	      3.10647253	     49.31177179	      0.00000000	     19.25857455	    -24.76419801	     11.34144466	    -68.83243413	     26.09637035	     29.59512711	      0.00000000	      0.00000000	      0.00000000	      0.00000000
      3.35000000	     54.02118883	    -15.09911505	      0.41479772	      0.43180152	      1.02610827	     -0.35883148	     21.61885727	      0.58560445	      5.68963502	    -37.07239153	      3.16735355	     49.37518288	      0.00000000	     19.27790457	    -24.78572941	     11.38006503	    -68.82240357	     26.08221223	     29.59544000	      0.00000000	      0.00000000	      0.00000000	      0.00000000
